<?xml version="1.0" encoding="utf-8"?>
<!-- Generator: Adobe Illustrator 21.0.2, SVG Export Plug-In . SVG Version: 6.00 Build 0)  -->
<svg version="1.1" id="Layer_1" xmlns="http://www.w3.org/2000/svg" xmlns:xlink="http://www.w3.org/1999/xlink" x="0px" y="0px"
	 viewBox="0 0 800 171.7" style="enable-background:new 0 0 800 171.7;" xml:space="preserve">
<style type="text/css">
	.st0{fill:#00B9D1;}
	.st1{fill:url(#SVGID_1_);}
	.st2{fill:url(#SVGID_2_);}
	.st3{fill:url(#SVGID_3_);}
	.st4{fill:url(#SVGID_4_);}
	.st5{fill:#BED00A;}
	.st6{fill:url(#SVGID_5_);}
	.st7{fill:url(#SVGID_6_);}
	.st8{fill:url(#SVGID_7_);}
	.st9{fill:url(#SVGID_8_);}
	.st10{fill:#CAD939;}
	.st11{fill:#FFFFFF;}
</style>
<g>
	<g>
		<path class="st0" d="M61,60.5c5.1-5.6,13.6-8.4,25.7-8.4c12.1,0,20.7,2.8,25.7,8.4c5.1,5.6,7.6,15.1,7.6,28.5
			c0,13.3-2.5,22.8-7.6,28.3c-5.1,5.5-13.6,8.3-25.7,8.3c-12.1,0-20.7-2.8-25.7-8.3c-5.1-5.5-7.6-15-7.6-28.3
			C53.5,75.6,56,66.2,61,60.5z M101.6,70.3C99,66.7,94,65,86.8,65c-7.2,0-12.2,1.8-14.9,5.3c-2.7,3.5-4,9-4,18.7
			c0,9.6,1.3,15.1,4,18.6c2.7,3.5,7.6,5.3,14.9,5.3c7.2,0,12.2-1.8,14.9-5.3c2.7-3.5,4-9,4-18.6C105.6,79.3,104.3,73.8,101.6,70.3z"
			/>
	</g>
	<path class="st0" d="M217.9,57.9c-0.6,0-1.1,0.5-1.1,1.1V89c0,9.6-1.3,15.1-4,18.6c-2.7,3.5-7.6,5.3-14.9,5.3
		c-7.2,0-12.2-1.8-14.9-5.3c-2.7-3.5-4-9-4-18.6h0V59.1c0-0.6-0.5-1.1-1.1-1.1h-12.2c-0.6,0-1.1,0.5-1.1,1.1V89
		c0,13.3,2.5,22.8,7.6,28.3c5.1,5.5,13.6,8.3,25.7,8.3c6.9,0,12.7-0.9,17.3-2.7c0.7-0.3,1.5,0.3,1.5,1.1v0.5c0,0.6,0.5,1.1,1.1,1.1
		H230c0.6,0,1.1-0.5,1.1-1.1V59.1c0-0.6-0.5-1.1-1.1-1.1H217.9z"/>
	<g>
		<g>
			<path class="st0" d="M57.7,120.4c-1.7-1.8-3.1-4-4.3-6.4c-0.2-0.4-0.6-0.7-1-0.7H27.4c-3.3,0-5.7-0.7-7-2.1c-1.3-1.4-2-3.7-2-7.1
				V27.8c0-0.6-0.5-1.1-1.1-1.1h-12c-0.6,0-1.1,0.5-1.1,1.1v78.4c0,13,7,19.4,21,19.4h35.4c1.1,0,1.6-1.4,0.7-2.1
				C59.9,122.6,58.7,121.5,57.7,120.4z"/>
		</g>
	</g>
	<g>
		<g>
			<path class="st0" d="M291.8,89.5c-2.5-3.1-6.7-5.4-12.6-7.1l-19.7-5.3c-2.3-0.7-3.8-1.2-4.4-1.5c-0.7-0.3-1.6-0.7-2.8-1.5
				c-1.2-0.7-1.9-1.6-2.2-2.7c-0.3-1.1-0.4-2.5-0.4-4.3c0-3.8,1-6.2,3.1-7.1c2-0.9,6.4-1.8,13.2-1.8h19.4c0.4,0,0.7-0.2,0.9-0.5
				l7.4-10c0.6-0.8,0-1.8-0.9-1.8h-28.9c-10.1,0-17.2,1.3-21.4,4.2c-4.1,2.9-6.2,8.5-6.2,16.9c0,6.2,1.2,10.9,3.6,14.2
				c2.4,3.3,6.5,5.7,12.3,7.4l19.4,5.3c2.4,0.6,3.9,1.1,4.6,1.3c0.7,0.3,1.7,0.8,2.9,1.5c1.2,0.7,2,1.6,2.4,2.7
				c0.4,1.1,0.6,2.5,0.6,4.1c0,3.8-1.3,6.3-4,7.5c-2.7,1.2-8.5,2.1-16.3,2.1h-24.9c-0.6,0-1.1,0.5-1.1,1.1v10c0,0.6,0.5,1.1,1.1,1.1
				h28.3c11.2,0,19-1.4,23.5-4.3c4.5-2.8,6.8-8.7,6.8-17.6C295.5,97.3,294.3,92.5,291.8,89.5z"/>
		</g>
	</g>
	<path class="st0" d="M168.7,120.4c-1.7-1.8-3.1-4-4.3-6.4c-0.2-0.4-0.6-0.7-1-0.7H150c-3.3,0-5.7-0.7-7-2.1c-1.3-1.4-2-3.7-2-7.1
		V59.2c0-0.6,0.5-1.1,1.1-1.1h12.8c0.4,0,0.7-0.2,0.9-0.5l7.3-9.7c0.6-0.8,0-1.8-0.9-1.8h-20.1c-0.6,0-1.1-0.5-1.1-1.1V27.8
		c0-0.6-0.5-1.1-1.1-1.1h-12c-0.6,0-1.1,0.5-1.1,1.1v17.2c0,0.6-0.5,1.1-1.1,1.1h-8.9c-0.6,0-1.1,0.5-1.1,1.1v9.7
		c0,0.6,0.5,1.1,1.1,1.1h8.9c0.6,0,1.1,0.5,1.1,1.1v46.9c0,13,7,19.4,21,19.4h23.9c1.1,0,1.6-1.4,0.7-2.1
		C170.9,122.6,169.8,121.5,168.7,120.4z"/>
	<path class="st10" d="M563.5,95.8h-37.6c-0.5,0-0.9,0.3-1.1,0.8l-8.7,28.1c-0.1,0.5-0.6,0.8-1.1,0.8h-12.2c-0.8,0-1.3-0.8-1.1-1.5
		l30.4-93.3c0.8-2.6,2.5-3.9,5.3-3.9h14.6c2.9,0,4.6,1.3,5.1,3.9l30.5,93.3c0.2,0.7-0.3,1.5-1.1,1.5h-12.3c-0.5,0-0.9-0.3-1.1-0.8
		l-8.7-28.1C564.5,96.2,564,95.8,563.5,95.8z M559.1,83.4c0.8,0,1.3-0.7,1.1-1.5l-11.1-36c-0.3-0.9-0.7-2.2-1.2-4
		c-0.4-1.3-0.7-2.4-1-3.2c-0.1-0.5-0.6-0.8-1.1-0.8l-2.2,0c-0.5,0-1,0.3-1.1,0.8l-2.1,7.2l-11.1,36c-0.2,0.7,0.3,1.5,1.1,1.5H559.1z
		"/>
	<g>
		<path class="st10" d="M652.4,60.6c-5.1-5.6-13.6-8.4-25.7-8.4c-7,0-12.8,0.9-17.5,2.8c-0.7,0.3-1.6-0.3-1.6-1.1v-0.6
			c0-0.6-0.5-1.1-1.1-1.1h-12c-0.6,0-1.1,0.5-1.1,1.1v111.2c0,0.9,1,1.5,1.8,0.9l12-8.2c0.3-0.2,0.5-0.6,0.5-0.9v-32.3
			c0-0.8,0.8-1.4,1.6-1.1c4.6,1.9,10.5,2.8,17.5,2.8c12.1,0,20.7-2.8,25.7-8.3c5.1-5.5,7.6-15,7.6-28.3
			C660,75.7,657.4,66.2,652.4,60.6z M641.5,107.6c-2.7,3.5-7.6,5.3-14.9,5.3c-7.2,0-12.2-1.8-14.9-5.3c-2.7-3.5-4-9-4-18.6
			c0-9.7,1.3-15.2,4-18.7c2.7-3.5,7.6-5.3,14.9-5.3c7.2,0,12.2,1.8,14.9,5.3c2.7,3.5,4,9,4,18.7C645.5,98.7,644.2,104.1,641.5,107.6
			z"/>
	</g>
	<g>
		<path class="st10" d="M725.8,60.6c-5.1-5.6-13.6-8.4-25.7-8.4c-7,0-12.8,0.9-17.5,2.8c-0.7,0.3-1.6-0.3-1.6-1.1v-0.6
			c0-0.6-0.5-1.1-1.1-1.1h-12c-0.6,0-1.1,0.5-1.1,1.1v111.2c0,0.9,1,1.5,1.8,0.9l12-8.2c0.3-0.2,0.5-0.6,0.5-0.9v-32.3
			c0-0.8,0.8-1.4,1.6-1.1c4.6,1.9,10.5,2.8,17.5,2.8c12.1,0,20.7-2.8,25.7-8.3c5.1-5.5,7.6-15,7.6-28.3
			C733.4,75.7,730.9,66.2,725.8,60.6z M715,107.6c-2.7,3.5-7.6,5.3-14.9,5.3c-7.2,0-12.2-1.8-14.9-5.3c-2.7-3.5-4-9-4-18.6
			c0-9.7,1.3-15.2,4-18.7c2.7-3.5,7.6-5.3,14.9-5.3c7.2,0,12.2,1.8,14.9,5.3c2.7,3.5,4,9,4,18.7C719,98.7,717.6,104.1,715,107.6z"/>
	</g>
	<g>
		<g>
			<path class="st10" d="M792.2,89.5c-2.5-3.1-6.7-5.4-12.6-7.1l-19.7-5.3c-2.3-0.7-3.8-1.2-4.4-1.5c-0.7-0.3-1.6-0.7-2.8-1.5
				c-1.2-0.7-1.9-1.6-2.2-2.7c-0.3-1.1-0.4-2.5-0.4-4.3c0-3.8,1-6.2,3.1-7.1c2-0.9,6.4-1.8,13.2-1.8h19.4c0.4,0,0.7-0.2,0.9-0.5
				l7.4-10c0.6-0.8,0-1.8-0.9-1.8h-28.9c-10.1,0-17.2,1.3-21.4,4.2c-4.1,2.9-6.2,8.5-6.2,16.9c0,6.2,1.2,10.9,3.6,14.2
				c2.4,3.3,6.5,5.7,12.3,7.4l19.4,5.3c2.4,0.6,3.9,1.1,4.6,1.3c0.7,0.3,1.7,0.8,2.9,1.5c1.2,0.7,2,1.6,2.4,2.7
				c0.4,1.1,0.6,2.5,0.6,4.1c0,3.8-1.3,6.3-4,7.5c-2.7,1.2-8.5,2.1-16.3,2.1h-27.6c-0.4,0-0.8,0.3-1,0.7c-1.2,2.5-2.6,4.6-4.3,6.5
				c-1,1.1-2.2,2.1-3.4,3.1c-0.9,0.7-0.4,2.1,0.7,2.1h39.1c11.2,0,19-1.4,23.5-4.3c4.5-2.8,6.8-8.7,6.8-17.6
				C795.9,97.3,794.7,92.5,792.2,89.5z"/>
		</g>
	</g>
</g>
<path class="st10" d="M448.4,107.5h-17.6V69.8h17.6c16.3,0,29.5-13.2,29.5-29.5s-13.2-29.5-29.5-29.5c-16.3,0-29.5,13.2-29.5,29.6
	v17.5h-37.8V40.3c0-16.3-13.2-29.5-29.5-29.5c-16.3,0-29.5,13.2-29.5,29.5s13.2,29.5,29.6,29.5h17.5v37.8h-19.7l-1.7,0.1l0,0
	c-14.5,1.9-25.6,14.6-25.6,29.4c0,16.3,13.2,29.5,29.5,29.5c16.3,0,29.5-13.2,29.5-29.6v-17.5h37.8V137c0,16.3,13.2,29.5,29.5,29.5
	c16.3,0,29.5-13.2,29.5-29.5S464.6,107.5,448.4,107.5z M466,137c0,9.7-7.9,17.6-17.6,17.6c-9.7,0-17.6-7.9-17.6-17.7v-17.5h17.6
	C458.1,119.5,466,127.3,466,137z M430.8,57.8V40.3c0-9.7,7.9-17.6,17.6-17.6c9.7,0,17.6,7.9,17.6,17.6c0,9.7-7.9,17.6-17.6,17.6
	H430.8z M418.9,69.8v37.8h-37.8V69.8H418.9z M369.2,40.4v17.5h-17.6c-9.7,0-17.6-7.9-17.6-17.6c0-9.7,7.9-17.6,17.6-17.6
	C361.3,22.7,369.2,30.6,369.2,40.4z M369.2,119.5V137c0,9.7-7.9,17.6-17.6,17.6c-9.7,0-17.6-7.9-17.6-17.6c0-9.7,7.9-17.6,17.6-17.6
	H369.2z"/>
<path class="st0" d="M415.2,145.6c-8.8,7.3-21.6,7.3-30.4,0c-0.5-0.4-1.2-0.3-1.5,0.3c-1.3,2.2-2.9,4.2-4.7,6
	c-0.4,0.4-0.4,1.1,0,1.5c6.2,5.1,13.8,7.7,21.4,7.7c7.6,0,15.2-2.6,21.4-7.7c0.5-0.4,0.5-1.1,0-1.5c-1.8-1.8-3.4-3.8-4.7-6
	C416.4,145.3,415.7,145.2,415.2,145.6z"/>
<path class="st0" d="M472.2,64.6c-2.1,2-4.4,3.8-6.9,5.2c-0.6,0.4-0.8,1.2-0.3,1.8c4.2,4.9,6.4,11.1,6.4,17.6
	c0,6.2-2.1,12.1-5.8,16.8c-0.4,0.6-0.3,1.4,0.3,1.7c2.5,1.5,4.8,3.3,6.8,5.4c0.5,0.5,1.3,0.5,1.7-0.1c5.4-6.8,8.3-15.1,8.3-23.9
	c0-9.1-3.1-17.6-8.8-24.5C473.4,64.2,472.6,64.2,472.2,64.6z"/>
<path class="st0" d="M381.3,23.5c0.4,0.6,1.2,0.8,1.7,0.3c5-4,11-6,17-6c6,0,12,2,17,6c0.6,0.5,1.4,0.3,1.7-0.3
	c1.4-2.5,3.2-4.9,5.2-7c0.5-0.5,0.4-1.3-0.1-1.7c-14-11-33.8-11-47.7,0c-0.5,0.4-0.6,1.2-0.1,1.7C378.1,18.6,379.8,21,381.3,23.5z"
	/>
<path class="st0" d="M334.4,105.9c-7.9-10.1-7.7-24.5,0.7-34.3c0.5-0.6,0.3-1.4-0.3-1.8c-2.5-1.4-4.9-3.2-7-5.2
	c-0.5-0.5-1.3-0.5-1.7,0.1c-11.5,14-11.7,34.2-0.6,48.3c0.4,0.5,1.2,0.6,1.7,0.1c2-2.1,4.3-3.9,6.8-5.4
	C334.7,107.3,334.9,106.5,334.4,105.9z"/>
</svg>
