<?xml version="1.0" encoding="utf-8"?>
<!-- Generator: Adobe Illustrator 26.4.1, SVG Export Plug-In . SVG Version: 6.00 Build 0)  -->
<svg version="1.1" id="Layer_1" xmlns="http://www.w3.org/2000/svg" xmlns:xlink="http://www.w3.org/1999/xlink" x="0px" y="0px"
	 viewBox="0 0 77.5 88" style="enable-background:new 0 0 77.5 88;" xml:space="preserve">
<style type="text/css">
	.st0{fill:#71C4D5;}
</style>
<g>
	<path class="st0" d="M77.5,24.4c0-1.7-0.9-3.3-2.4-4.1l-14.8-8.6c-0.8-0.4-1.7-0.7-2.5-0.6c-0.4-0.8-1-1.4-1.8-1.8L41.1,0.6
		c-1.5-0.8-3.3-0.8-4.7,0L21.5,9.2c-0.7,0.4-1.4,1.1-1.8,1.8c-0.9,0-1.8,0.2-2.5,0.6L2.4,20.3C0.9,21.1,0,22.7,0,24.4v17.2
		c0,0.9,0.2,1.7,0.7,2.5C0.2,44.7,0,45.6,0,46.5v17.2c0,1.7,0.9,3.3,2.4,4.1l14.8,8.6c0.7,0.4,1.5,0.6,2.4,0.6c0.1,0,0.1,0,0.2,0
		c0.4,0.8,1,1.4,1.8,1.8l14.8,8.6c1.5,0.8,3.3,0.8,4.7,0l14.8-8.6c0.7-0.4,1.4-1.1,1.8-1.8c0.1,0,0.1,0,0.2,0c0.8,0,1.6-0.2,2.4-0.6
		l14.9-8.6c1.5-0.8,2.4-2.4,2.4-4.1V46.5c0-0.9-0.2-1.7-0.7-2.5c0.5-0.7,0.7-1.6,0.7-2.5V24.4z M22.2,10.3L22.2,10.3L37,1.8
		c1.1-0.6,2.4-0.6,3.4,0l14.8,8.6c0.4,0.2,0.8,0.6,1.1,1c-0.3,0.1-0.6,0.2-0.8,0.4l-14.8,8.6c-0.8,0.4-1.4,1.1-1.8,1.9
		c-0.1,0-0.2,0-0.3,0c-0.4-0.8-1-1.4-1.8-1.9l-14.8-8.6c-0.3-0.2-0.5-0.3-0.8-0.4C21.4,10.9,21.8,10.6,22.2,10.3z M39.7,42.3
		c-0.1-0.3-0.1-0.6-0.1-0.8V24.4c0-0.3,0.1-0.5,0.1-0.8c0.3,0.1,0.5,0.2,0.8,0.3l0,0l14.8,8.6c0.2,0.1,0.5,0.3,0.7,0.5
		c-0.2,0.2-0.4,0.4-0.7,0.5L40.5,42C40.2,42.2,40,42.3,39.7,42.3z M55.3,54.5c0.3,0.1,0.5,0.3,0.7,0.5c-0.2,0.2-0.4,0.4-0.7,0.5
		l-14.8,8.6c-0.2,0.1-0.5,0.2-0.8,0.3c-0.1-0.3-0.1-0.6-0.1-0.8V46.5c0-0.3,0.1-0.6,0.1-0.8c0.3,0.1,0.5,0.2,0.7,0.3L55.3,54.5z
		 M37.8,24.4v17.2c0,0.3,0,0.6-0.1,0.8c-0.2-0.1-0.5-0.2-0.7-0.3l-14.8-8.6c-0.2-0.1-0.5-0.3-0.7-0.5c0.2-0.2,0.4-0.4,0.7-0.5
		L37,23.9c0.2-0.1,0.5-0.2,0.7-0.3C37.8,23.8,37.8,24.1,37.8,24.4L37.8,24.4z M37.8,46.5v17.2c0,0.3,0,0.6-0.1,0.8
		c-0.2-0.1-0.5-0.2-0.7-0.3l0,0l-14.8-8.6c-0.2-0.1-0.5-0.3-0.7-0.5c0.2-0.2,0.4-0.4,0.7-0.5L37,46c0.2-0.1,0.4-0.2,0.7-0.3
		C37.8,45.9,37.8,46.2,37.8,46.5z M20.4,13.3c0-0.3,0-0.6,0.1-0.8c0.3,0.1,0.5,0.2,0.7,0.3l14.8,8.6c0.4,0.2,0.8,0.6,1.1,1
		c-0.3,0.1-0.6,0.2-0.9,0.4l-14.8,8.6c-0.3,0.2-0.5,0.3-0.8,0.5c-0.2-0.4-0.3-0.9-0.3-1.4V13.3z M20.4,35.4c0-0.3,0-0.6,0.1-0.8
		c0.3,0.1,0.5,0.2,0.7,0.3l14.8,8.6c0.2,0.1,0.5,0.3,0.7,0.5c-0.2,0.2-0.4,0.4-0.7,0.5l-14.8,8.6c-0.2,0.1-0.5,0.2-0.8,0.3
		c-0.1-0.3-0.1-0.5-0.1-0.8V35.4z M19.1,57.5v17.2c0,0.3,0,0.7,0.1,1c-0.5,0-1-0.2-1.4-0.4l0,0L3,66.6c-1.1-0.6-1.7-1.8-1.7-3V46.5
		c0-0.5,0.1-1,0.3-1.4c0.2,0.2,0.5,0.4,0.8,0.5l14.8,8.6c0.7,0.4,1.5,0.6,2.4,0.6c0,0,0.1,0,0.1,0c0,0.1,0.1,0.2,0.1,0.2
		C19.4,55.8,19.1,56.7,19.1,57.5z M19.2,53.5c-0.5,0-1-0.2-1.4-0.4L3,44.5c-0.2-0.1-0.5-0.3-0.7-0.5c0.2-0.2,0.4-0.4,0.7-0.5
		l14.8-8.6c0.4-0.2,0.9-0.4,1.4-0.4c-0.1,0.3-0.1,0.6-0.1,1v17.2C19.1,52.9,19.2,53.2,19.2,53.5z M19.7,33.2c-0.9,0-1.8,0.2-2.5,0.6
		L2.4,42.4c-0.3,0.2-0.5,0.3-0.8,0.5c-0.2-0.4-0.3-0.9-0.3-1.4V24.4c0-1.2,0.7-2.4,1.7-3l14.8-8.6c0.4-0.2,0.9-0.4,1.4-0.4
		c-0.1,0.3-0.1,0.6-0.1,1v17.2c0,0.9,0.3,1.7,0.7,2.5C19.8,33,19.8,33.1,19.7,33.2z M20.4,74.7L20.4,74.7l0-17.2
		c0-0.5,0.1-0.9,0.3-1.4c0.2,0.2,0.5,0.4,0.8,0.6l14.8,8.6c0.3,0.2,0.5,0.3,0.8,0.4c-0.3,0.4-0.6,0.7-1.1,1l-14.8,8.6
		c-0.2,0.1-0.5,0.2-0.7,0.3C20.5,75.2,20.4,75,20.4,74.7z M55.3,77.7L55.3,77.7l-14.8,8.6c-1.1,0.6-2.4,0.6-3.4,0l-14.8-8.6
		c-0.4-0.2-0.8-0.6-1.1-1c0.3-0.1,0.6-0.2,0.8-0.4l14.8-8.6c0.7-0.4,1.4-1.1,1.8-1.8c0.1,0,0.1,0,0.2,0c0.1,0,0.1,0,0.2,0
		c0.4,0.8,1,1.4,1.8,1.8l14.8,8.6c0.3,0.2,0.5,0.3,0.8,0.4C56.1,77.1,55.7,77.4,55.3,77.7z M57.1,74.7c0,0.3-0.1,0.6-0.1,0.8
		c-0.3-0.1-0.5-0.2-0.7-0.3l-14.9-8.6c-0.4-0.2-0.8-0.6-1.1-1c0.3-0.1,0.6-0.2,0.8-0.4l14.8-8.6c0.3-0.2,0.6-0.4,0.8-0.6
		c0.2,0.4,0.3,0.9,0.3,1.4V74.7z M57.1,52.6c0,0.3,0,0.5-0.1,0.8c-0.3-0.1-0.5-0.2-0.8-0.3v0l-14.8-8.6c-0.2-0.1-0.5-0.3-0.7-0.5
		c0.2-0.2,0.4-0.4,0.7-0.5l14.8-8.6c0.2-0.1,0.5-0.2,0.8-0.3c0.1,0.3,0.1,0.6,0.1,0.8V52.6z M57.1,30.5c0,0.5-0.1,1-0.3,1.4
		c-0.2-0.2-0.5-0.4-0.8-0.6l-14.9-8.6c-0.3-0.2-0.6-0.3-0.9-0.4c0.3-0.4,0.7-0.7,1.1-1l14.8-8.6c0.2-0.1,0.5-0.2,0.8-0.3
		c0.1,0.3,0.1,0.6,0.1,0.8V30.5z M74.5,66.6l-14.9,8.6c-0.4,0.2-0.9,0.4-1.4,0.4c0.1-0.3,0.1-0.6,0.1-1V57.5c0-0.9-0.3-1.7-0.7-2.5
		c0-0.1,0.1-0.2,0.1-0.2c0,0,0.1,0,0.1,0c0.8,0,1.6-0.2,2.4-0.6l14.8-8.6c0.3-0.2,0.5-0.3,0.8-0.5c0.2,0.4,0.3,0.9,0.3,1.4l0,17.2
		C76.2,64.9,75.5,66,74.5,66.6z M58.2,34.5c0.5,0,1,0.2,1.4,0.4l14.8,8.6c0.2,0.1,0.5,0.3,0.7,0.5c-0.2,0.2-0.4,0.4-0.7,0.5
		l-14.8,8.6c-0.4,0.2-0.9,0.4-1.4,0.4c0.1-0.3,0.1-0.6,0.1-0.9V35.4C58.4,35.1,58.3,34.8,58.2,34.5z M76.2,41.5c0,0.5-0.1,1-0.3,1.4
		c-0.2-0.2-0.5-0.4-0.8-0.5l-14.8-8.6c-0.8-0.4-1.7-0.7-2.5-0.6c0-0.1-0.1-0.1-0.1-0.2c0.5-0.7,0.7-1.6,0.7-2.5V13.3
		c0-0.3-0.1-0.6-0.1-1c0.5,0,1,0.2,1.4,0.4l0,0l14.9,8.6c1.1,0.6,1.7,1.7,1.7,3V41.5z"/>
</g>
</svg>
